<svg xmlns="http://www.w3.org/2000/svg" xmlns:xlink="http://www.w3.org/1999/xlink" viewBox="0 0 385.14 478.94"><defs><linearGradient id="d" x1="-211.3" x2="-138.24" y1="790.2" y2="790.2" gradientTransform="matrix(2.45 0 0 2.45 596.89 -1604.55)" gradientUnits="userSpaceOnUse"><stop offset="0" stop-color="#b6d54d"/><stop offset=".7" stop-color="#50b848"/></linearGradient><linearGradient id="b" x1="1042.21" x2="1069.87" y1="81.52" y2="121.03" gradientTransform="rotate(-1.17 1333.27 69289.515) scale(1.63)" gradientUnits="userSpaceOnUse"><stop offset="0" stop-color="#fff"/><stop offset=".23" stop-color="#fcfcfc"/><stop offset=".37" stop-color="#f4f4f4"/><stop offset=".49" stop-color="#e5e5e5"/><stop offset=".6" stop-color="#d1d1d1"/><stop offset=".69" stop-color="#b6b6b6"/><stop offset=".78" stop-color="#969696"/><stop offset=".85" stop-color="#757575"/></linearGradient><linearGradient id="g" x1="952.82" x2="952.82" y1="153.65" y2="123.65" gradientTransform="rotate(-1.17 2304.133 69174.544) scale(1.63)" gradientUnits="userSpaceOnUse"><stop offset="0" stop-color="#6589c6"/><stop offset="1" stop-color="#1a2d60"/></linearGradient><linearGradient id="h" x1="-119.12" x2="-232.46" y1="523.95" y2="523.95" gradientTransform="rotate(-5.32 -12318.28 -5655.551) scale(2.45)" gradientUnits="userSpaceOnUse"><stop offset="0" stop-color="#5087c7"/><stop offset="1" stop-color="#13529b"/></linearGradient><linearGradient id="j" x1="-169.08" x2="-169.08" y1="358.21" y2="336.57" gradientTransform="rotate(-19.93 -1790.39 -1287.131) scale(2.45)" gradientUnits="userSpaceOnUse"><stop offset="0" stop-color="#f4878f"/><stop offset=".7" stop-color="#f26b70"/></linearGradient><linearGradient id="k" x1="-194.79" x2="-232.29" y1="546.06" y2="546.06" gradientTransform="rotate(-5.32 -12318.28 -5655.551) scale(2.45)" gradientUnits="userSpaceOnUse"><stop offset="0" stop-color="#719cd2"/><stop offset="1" stop-color="#4175ba"/></linearGradient><linearGradient id="l" x1="-127.79" x2="-168.54" y1="510.93" y2="510.93" gradientTransform="rotate(-5.32 -12318.28 -5655.551) scale(2.45)" gradientUnits="userSpaceOnUse"><stop offset="0" stop-color="#fff"/><stop offset=".08" stop-color="#e5edf6"/><stop offset=".28" stop-color="#a6c1e3"/><stop offset=".42" stop-color="#7fa6d6"/><stop offset=".5" stop-color="#719cd2"/><stop offset="1" stop-color="#4175ba"/></linearGradient><linearGradient xlink:href="#b" id="m" x1="888.68" x2="921.96" y1="146.41" y2="193.94"/><linearGradient id="n" x1="897.64" x2="930.91" y1="140.15" y2="187.67" gradientTransform="rotate(-1.17 1333.27 69289.515) scale(1.63)" gradientUnits="userSpaceOnUse"><stop offset="0" stop-color="#cfedfc"/><stop offset=".09" stop-color="#cae9f9"/><stop offset=".18" stop-color="#beddf3"/><stop offset=".26" stop-color="#aacae9"/><stop offset=".35" stop-color="#8eafda"/><stop offset=".44" stop-color="#698dc8"/><stop offset=".45" stop-color="#6589c6"/><stop offset=".55" stop-color="#6185c1"/><stop offset=".66" stop-color="#5879b5"/><stop offset=".78" stop-color="#4967a0"/><stop offset=".89" stop-color="#344d83"/><stop offset="1" stop-color="#1a2d60"/></linearGradient><radialGradient id="c" cx="1013.21" cy="209.1" r="80.3" fx="1013.21" fy="209.1" gradientTransform="matrix(1.63 0 0 1.63 -1408.19 7.56)" gradientUnits="userSpaceOnUse"><stop offset="0" stop-color="#b6d54d"/><stop offset=".7" stop-color="#50b848"/></radialGradient><radialGradient id="a" cx="-175.72" cy="282.96" r="18.05" fx="-175.72" fy="282.96" gradientTransform="rotate(-30.67 -487.155 -230.808) scale(1.25)" gradientUnits="userSpaceOnUse"><stop offset="0" stop-color="#fff685"/><stop offset="1" stop-color="#ffd400"/></radialGradient><radialGradient xlink:href="#a" id="i" cx="-184.92" cy="234.7" r="18.04" fx="-184.92" fy="234.7" gradientTransform="rotate(8.45 2362.459 3436.455) scale(1.66)"/><clipPath id="e"><path d="M187.87 295.35c-8.88 6.53-21.22 7.82-31.83 6.16-8.45-1.32-15.7-4.62-20.47-9.01-3.78-3.47-6.56-8.31-5.98-13.59.48-4.42 3.16-8.36 7.35-11.44 5.23-3.84 12.79-6.33 21.33-6.73 10.73-.5 22.85 2.12 30.97 9.59 3.83 3.51 6.07 7.73 6.06 12.17 0 5.31-3.29 9.82-7.43 12.86Z" style="fill:none"/></clipPath><clipPath id="f"><path d="M279.69 264.61c9.68-.57 18.74-6.6 24.98-13.63 4.97-5.6 8-11.86 8.76-17.47.6-4.45-.25-9.24-3.61-12.46-2.81-2.7-6.85-3.84-11.41-3.58-5.69.34-12.21 2.89-18.2 7.39-7.53 5.66-14.25 14.18-15.53 23.72-.61 4.5.25 8.58 2.76 11.55 2.99 3.56 7.75 4.75 12.26 4.48Z" style="fill:none"/></clipPath></defs><path d="M159.07 345.52c-2.18 7.07-16.33 25.04-22.86 27.75-6.53 2.72-25.58 13.06-25.58 17.96s4.35 14.69 35.37 8.16c0 0-1.63 9.79 6.53 8.16 8.16-1.63 16.33-20.13 16.33-20.13s3.26 4.9-1.63 16.87c-4.9 11.97-16.33 34.83-16.87 40.27-.55 5.44 1.09 29.93 16.87 31.02 15.78 1.09 21.77-13.06 24.49-28.84 2.72-15.79 10.34-38.09 10.34-38.09l17.42-4.36s-5.99 31.02 8.71 38.1c14.69 7.08 32.65 2.72 29.39-6.53-3.27-9.25-7.07-28.3-3.27-45.17 3.81-16.87 10.88-31.02 10.88-40.27s-5.44-35.92-5.44-35.92 54.97-33.2 82.18-39.73c0 0 26.12 7.62 29.93 8.16 3.81.54 11.43 0 10.34-10.34-1.09-10.34-12.52-29.39-33.2-34.29 0 0-2.18-17.41-8.16-15.24-5.98 2.18-6.53 8.71-10.88 13.6-4.35 4.9-13.06 11.98-13.06 11.98s-24.49 40.27-58.78 50.06c0 0-3.81 15.78-29.93 22.86s-37.55.55-37.55.55-7.62 8.16-14.15 13.6c-6.53 5.44-17.42 9.8-17.42 9.8Z" style="fill:url(#c)"/><path d="M179.32 323.2c-14.7 5.99-21.23 31.56-38.1 45.71-16.87 14.15-37.13 17.55-28.84 27.75 7.07 8.71 32.11 4.36 34.83 2.18" style="fill:none"/><path d="M180.24 325.47c-15.29 8.79-20.8 29.69-33.65 41.33-11.33 12.76-30.48 16.81-34.33 25.53 3.39 10.19 18.56 8.02 24.14 8.16 7.13-.44 10.59-1.88 10.81-1.65.28.28-3.44 2.55-10.59 3.54-3.58.45-8.01 1.02-13.24.41-4.57-.51-13.01-1.69-14.57-10.38 6.6-14.91 24.1-15.66 34.57-28.78 12.31-10.92 15.96-31.16 35.02-42.7" style="fill:#002750"/><path d="M156.35 317.22c-20.14 1.09-68.57 34.28-77.28 47.89 0 0 93.6-10.34 111.56-42.99 0 0 22.86 6.53 40.27.54 17.42-5.99 26.12-17.96 27.21-23.95l-2.72.55s0 3.81-9.25 5.99l-6.53.55s-21.22 16.33-76.19 13.06l-7.07-1.63Z" style="fill:url(#d)"/><path d="M191.29 343.34c-5.99 13.6-14.81 30.81-24.06 47.89-7.07 13.06-11.86 16.87-18.39 15.78-6.79-1.13-1.09-12.52-1.09-12.52" style="fill:none"/><path d="M147.75 394.5c1.38-.73-3.22 7.63 1 10.59 7.46 2.33 13.67-9.71 19.41-20.81 12.38-22.79 21.88-41.46 23.13-40.94 1.26.52-6.38 20.36-18.81 43.25-5.57 10.21-12.66 25.51-24.91 21.75-6.16-3.72-2.41-9-2.09-10.71 1.05-2.25 1.99-3.29 2.27-3.14Z" style="fill:#002750"/><path d="M257.69 309.6c10.88 23.95 8.71 48.98 0 70.75-8.71 21.77-4.35 43-1.63 49.52 2.72 6.53.87 19.11-18.5 15.78-19.05-3.26-22.86-15.78-17.41-41.9" style="fill:none"/><path d="M223.33 404.41c-2.58 13.13-4.66 29.01 5.59 34.88 9.69 5.62 27.36 5.53 24.96-5.95-9.15-23.55-1.18-49 5.36-65.11 10.41-36.12-3.56-58.61-1.56-58.64-.52-.89 15.65 21.56 6.01 59.87-6.3 18.21-12.98 38.74-3.87 62.97 2.05 7.67-5.16 16.52-13.01 16.53-7.36.59-14.39-.29-21.21-4.19-14.99-9.71-10.96-28.65-8.68-41.68" style="fill:#002750"/><path d="M245.71 386.33c-3.27 10.34-30.48 23.95-51.7 21.23" style="fill:none"/><path d="M194.01 407.56c.19-1.29 13.14-.61 27.89-6.44 15.27-5.21 23.46-14.64 23.81-14.78 2.6.84-5.88 14.1-22.09 19.37-15.85 6.25-30.07 3.25-29.61 1.86Z" style="fill:#002750"/><path d="M313.74 253.54c11.32-11.97 20.24-19.12 21.65-24.49 2.72-10.34 15.9-9.25 12.63 17.96" style="fill:none"/><path d="M311.96 251.86c6.52-7.01 13.57-13.11 18.65-19.05 2.84-2.36 2.31-6.4 6.37-10.17 4.43-3.9 10.39.58 10.96 3.69 4.06 13.17.08 20.76.09 20.68-1.2.18 1.05-8.45-3.19-19.13-4.01-6.14-5.87-1.81-10.68 7.72-5.48 6.77-12.19 12.66-18.63 19.61" style="fill:#002750"/><path d="M332.24 273.13c18.51 2.18 42.99 16.33 49.53 5.99 6.53-10.34-13.06-36.46-33.74-40.82" style="fill:none"/><path d="M348.53 235.91c15.95 4.1 27.41 15.47 33.79 27.65 3 5.53 5.16 15.1-2 19.63-6.8 3.17-12.53.82-17.36-.21-19.13-6.4-30.62-9.54-30.72-9.85.06-1.09 12.64 1.05 31.56 6.49 4.58.98 10.49 2.3 14.43.09 3.85-2.24 3.03-8.83.04-14.15-5.78-10.78-17.02-21.46-30.75-24.86" style="fill:#002750"/><path d="M343.13 275.85c-14.69 1.09-60.52 25.04-82.83 38.64" style="fill:none"/><path d="M259.02 312.4c43.48-26.51 83.32-40.07 84.11-36.55-.3-.82-38.34 14.43-81.56 40.73" style="fill:#002750"/><path d="M78.1 365.65s88.16-8.16 111.57-43.53" style="fill:none"/><path d="M191.71 323.47c-23.22 28.3-56.98 32.66-77.79 38.09-21.92 4.27-35.77 4.69-35.82 4.09-.09-.74 13.57-2.38 35.08-7.47 20.29-5.92 53.76-11.83 74.44-37.41" style="fill:#002750"/><path d="M159.18 317.76c-22.31-1.63-60.95 29.93-81.09 47.89" style="fill:none"/><path d="M159.01 320.21c-24.79 1.8-44.55 19.7-58.33 28.78-13.84 10.33-22.08 17.23-22.57 16.67-.4-.45 7.02-8.26 20.44-19.39 13.88-9.81 31.86-28.58 60.83-30.94" style="fill:#002750"/><path d="M258.23 298.71c-2.72 12.52-29.93 36.46-78.91 20.68" style="fill:none"/><path d="M180.07 317.06c23.04 7.88 46.02 6.14 59.96-1.18 14.42-7.19 17.82-17.44 18.2-17.17 1.03-.19-1.55 11.74-16.56 20.22-14.44 8.68-39.2 11.03-63.1 2.8" style="fill:#002750"/><path d="M182.59 320.48c-8.71 0-36.46 11.43-46.26 17.42" style="fill:none"/><path d="M182.59 322.11c-25.95 5.14-45.99 16.89-46.26 15.78-.32-.46 18.19-13.57 46.26-19.05" style="fill:#002750"/><path d="M202.61 407.56c-4.9 8.16-10.22 31.02-11.31 42.45-1.09 11.43-10.2 31.84-28.3 24.49-17.41-7.07-14.15-33.2-7.62-44.08 6.53-10.88 17.96-32.65 14.7-45.17" style="fill:none"/><path d="M205.41 409.24c-5.23 10.41-7.94 23.3-10.06 34.78-.96 11.47-4.43 25.83-15.93 32.63-12.53 6.65-26.28-2.27-29.63-12.61-3.68-10.42-2.01-20.48.89-28.77 18.74-29.48 20.22-49.59 19.4-50.02.22-.22 2.5 5.25.34 14.79-1.54 9.43-8.37 22.44-15.39 36.79-2.39 7.46-3.45 16.92-.2 25.22 2.64 8.06 13.55 14.04 21.66 9.36 8.24-5.21 11.73-16.26 12.56-28.4 2.29-12.27 4.47-24.46 10.78-37.12" style="fill:#002750"/><path d="M231.31 333.72c.74-2.83 2.2-4.51 4.36-5.04 1.2-.29 2.25-.16 3.16.39.91.56 1.57 1.44 1.99 2.66L251 362.69l.34 1.04c.2.57.32 1.14.36 1.72.07.93-.08 1.82-.46 2.68-.38.86-.93 1.61-1.65 2.23-.72.62-1.55 1.05-2.49 1.29-2.57.63-4.36-.45-5.36-3.24l-.34-1.04-5.51-16.66-4.36 20.37c-.36 1.56-.9 2.79-1.62 3.69-.72.9-1.6 1.48-2.65 1.74-.96.24-1.86.14-2.69-.28-.83-.42-1.45-1.1-1.88-2.03l-.36-.87-7.34-17.5-2.91 18.76-.17 1.16c-.25 1.54-.79 2.79-1.61 3.76-.82.97-1.85 1.61-3.09 1.91-.94.23-1.81.22-2.59-.04-.78-.26-1.42-.72-1.92-1.37-.5-.66-.78-1.41-.84-2.25-.04-.54-.02-1.2.07-2l.17-1.16 5.44-34.47c.21-1.5.73-2.75 1.56-3.76.83-1 1.84-1.65 3.04-1.95 1.16-.28 2.15-.17 2.98.35.83.52 1.59 1.49 2.29 2.92l8.28 17.34 5.63-21.34Z" style="fill:#fff"/><path d="M87.05 259.82c-5.02-32.56 7.1-78.53 65.51-96.61 58.41-18.07 91.85-33.45 115.45-24.14 23.6 9.31 58.44 36.36 54.01 85.44-4.44 49.08-78.81 86.5-116.23 93.25-37.42 6.76-91.48-2.98-96.54-10.5-5.05-7.52-22.2-47.44-22.2-47.44Z" style="fill:#fdd1b0"/><path d="M85.47 253.42c-4.94-29.92 7.17-72.19 65.27-88.9 58.1-16.7 91.36-30.89 114.81-22.37 23.44 8.53 58.04 33.33 53.56 78.45-4.48 45.12-78.47 81.13-115.69 87.39-37.21 6.27-90.94-4.1-95.96-11.01-5.01-6.9-22-43.57-22-43.57Z" style="fill:#fff4e0"/><path d="M48.48 176.22c-.92 3.83-1.79 7.78-2.54 11.87-3.33 18.02-4.99 39.99 5.32 60.35l5.75-3.09c-9.17-18.01-8.11-38.64-5.14-56.22.49-2.98 1.05-5.88 1.64-8.74-1.71-1.37-3.38-2.76-5.03-4.16Z" style="fill:#002750"/><path d="M95.52 268.9c-15.78-26.35-3.5-64.16 29.45-76.81 32.95-12.65 61.07 4.22 84.23-7.17 16.17-7.95 31.12-56.44 78.12-33.72" style="fill:none"/><path d="M94.12 269.74c-10.15-17-8.66-38.49.73-54.11 9.07-16.14 25.94-25.69 42.2-28.52 31.77-5.92 65.87 11.16 81.71-12.42 14.33-19.85 33.31-32.76 48.08-29.89 13.98 1.7 20.46 6.69 20.48 6.4-.2.68-6.95-3.89-20.56-5.13-14.38-2.26-31.92 9.99-46.25 30.12-6.97 11.13-22.65 15.45-37 14.14-14.6-.64-30.05-3.4-45.89-.27-15.68 2.84-31.44 11.91-40 27.17-8.84 14.79-10.15 35-.69 50.83" style="fill:#002750"/><image width="56" height="36" style="clip-path:url(#e)" transform="rotate(-5.32 2899.412 -1243.882) scale(1.18)"/><path d="M158.41 279.56a2.171 2.171 0 0 1-2.29 2.05 2.18 2.18 0 0 1-2.06-2.29c.06-1.2 1.09-2.12 2.29-2.05 1.2.06 2.12 1.09 2.05 2.29Z" style="fill:#fff"/><image width="44" height="39" style="clip-path:url(#f)" transform="rotate(-5.32 2507.59 -2704.306) scale(1.18)"/><path d="M290.7 237.57c.72.77 1.93.81 2.7.1.78-.71.82-1.91.1-2.68-.72-.77-1.93-.81-2.71-.1a1.9 1.9 0 0 0-.1 2.69Z" style="fill:#fff"/><path d="M283.42 146.93c14.6-4.65 31.15 5.9 39.53 16.61 8.39 10.71 7.3 37.41-.18 44.09 0 0-3.2-23.34-13.85-38.36-10.65-15.02-25.5-22.34-25.5-22.34Z" style="fill:url(#b)"/><path d="M254.98 294.48c-.89 9.82-8.97 13.8-21.56 10.24" style="fill:none"/><path d="M233.42 304.72c.29-1.64 6.87.13 12.97-1.95 6.16-1.81 7.03-8.54 8.59-8.29 1.12-.84 2.9 9.13-6.97 12.91-9.04 2.68-15.01-1.89-14.59-2.67Z" style="fill:#002750"/><path d="M106.07 305.7c22.06 13.7 95.25 25.8 135.54-.06" style="fill:none"/><path d="M107.79 302.93c33.5 16.24 70.66 16.43 94.88 13.78 25.04-3 38.37-12.17 38.94-11.06.53.32-12.46 11.3-38.25 15.63-25.28 3.72-62.2 4.97-99.02-12.79M323.03 199.71c-4.81-26.25-24.89-53.2-54.71-63.2-17.9-7.12-36.45-8.02-53.85-6.38-.05 2.22-.3 4.35-.73 6.42 17.11-1.63 34.91-.8 52.37 6.1 27.58 9.22 46.21 33.95 51.02 58.25 5.34 24.68-3.16 47.81-15.01 62.51-24.9 29.71-51.11 35.29-49.74 37.11-.73-.26 26.14-3.86 53.34-34.22 12.95-15.04 22.75-39.86 17.3-66.59Z" style="fill:#002750"/><path d="M280.24 145.9c16.83-1.97 33.33 3.51 43.42 20.34 9.02 15.05 6.2 36.88-2.4 41.96" style="fill:none"/><path d="M320.01 206.09c8.29-7.16 7.8-22.36 4.69-32.02-3.38-10.3-10.93-17.89-18-21.93-14.94-7.99-26.65-4.95-26.46-6.25-.37.06 11.29-4.61 28.1 3.2 15.39 6.51 35.22 36.35 14.15 61.22" style="fill:#002750"/><path d="M169.21 254.04c.24 11.72-9.06 21.42-20.78 21.66-11.72.24-21.42-9.07-21.65-20.79-.24-11.72 9.06-21.41 20.78-21.65 11.72-.24 21.42 9.07 21.66 20.78Z" style="fill:url(#g);stroke:#231f20;stroke-width:3.27px"/><path d="M161.05 254.21c.15 7.21-5.58 13.18-12.79 13.33-7.21.15-13.18-5.58-13.33-12.79-.15-7.21 5.58-13.17 12.79-13.32 7.21-.15 13.18 5.58 13.33 12.79Z" style="fill:#231f20"/><path d="M143.52 248.58a5.987 5.987 0 0 1-5.86 6.11c-3.3.07-6.04-2.56-6.11-5.86a5.993 5.993 0 0 1 5.86-6.11 5.987 5.987 0 0 1 6.11 5.86ZM159.07 263.5c.03 1.2-.93 2.19-2.13 2.22-1.2.02-2.2-.93-2.22-2.13-.02-1.2.93-2.2 2.13-2.22 1.2-.03 2.2.93 2.22 2.13Z" style="fill:#fff"/><path d="m114.84 254.38 11.94.53" style="fill:none;stroke:#231f20;stroke-width:1.63px"/><path d="M52.58 245.83c-19.78-29.66-18.46-68.35-9.8-98.69 0 0 35.62 21.29 101.29-13.54 69.56-36.89 34.04-92.59 34.04-92.59s78.25 3.38 118.44 117.77c0 0-31.57-30.7-61.95 13.15-30.37 43.85-61.03 29.38-81.88 28.14-21.45-1.28-65.82 7.36-61.89 63.23.1 1.48.24 2.99.39 4.52" style="fill:url(#h)"/><path d="M52.58 245.83c-19.78-29.66-18.46-68.35-9.8-98.69" style="fill:none"/><path d="M42.78 147.15c1.83.42-4.7 22.68-2.82 50.36 1.38 27.93 14.06 47.5 12.62 48.33-.99 1.28-16.83-18.37-18.34-47.93-1.93-29.14 7.39-51.35 8.54-50.76Z" style="fill:#002750"/><path d="M42.78 147.15s35.62 21.29 101.29-13.54c69.56-36.89 34.04-92.59 34.04-92.59" style="fill:none"/><path d="M178.11 41.02c.08-.33 8.58 9.93 10.33 30.24.69 9.98-1.34 22.56-8.66 33.92-7.14 11.41-18.66 21.19-31.99 28.53-26.47 14.91-54.02 21.92-74.06 21.22-20.21-.35-31.42-7.36-30.96-7.78.11-.48 11.33 5.42 30.97 5.08 19.48 0 46.17-7.22 72.17-21.85 12.97-7.13 23.99-16.43 30.89-27.09 7.05-10.61 9.24-22.32 8.93-31.9-.96-19.48-8.42-30.15-7.63-30.37Z" style="fill:#002750"/><path d="M178.11 41.02s93.97 22.43 118.44 117.77" style="fill:none"/><path d="M296.56 158.79c-1.79.98-10.3-39.32-45.35-72.58-34.67-33.29-73.91-43.74-73.1-45.19-.2-1.64 41 6.52 77.08 41.07 17.8 17.08 29.13 36.81 34.94 51.69 5.77 15 7.04 24.89 6.42 25.02Z" style="fill:#002750"/><path d="M58.24 150.27 42.6 147l-11.56 11.03-1.72-15.89-14.06-7.58 14.57-6.55 2.88-15.72 10.73 11.84 15.83-2.12-7.94 13.86 6.91 14.4z" style="fill:url(#a);stroke:#002750;stroke-linecap:round;stroke-linejoin:round;stroke-width:2.45px"/><path d="M173.52 61.99 160.1 45.45l-21.24 1.68 11.58-17.88-8.16-19.67 20.58 5.49 16.2-13.84 1.13 21.26 18.17 11.13-19.88 7.65-4.96 20.72z" style="fill:url(#i);stroke:#002750;stroke-linecap:round;stroke-linejoin:round;stroke-width:2.45px"/><path d="M248.31 237.77c4.24 10.84 3.44 31.75-7.23 35.93-10.67 4.17-27.17-9.97-31.41-20.81" style="fill:url(#j)"/><path d="M209.66 252.89c.57-.23 2.37 3.88 7.4 8.86 4.66 4.43 13.54 12.43 22.93 10.26 8.73-3.96 9.17-16.38 9.26-22.7-.05-7.09-1.51-11.33-.94-11.55.39-.22 2.87 3.91 3.64 11.38.37 3.7.46 8.21-.69 13.15-1.08 4.69-3.58 10.96-10.04 13.33-6.49 2-12.16-.86-16.33-3.34-4.28-2.67-7.45-5.87-9.84-8.74-4.82-5.79-5.84-10.58-5.39-10.67Z" style="fill:#002750"/><path d="M46 155.25c-4.44 25.03 9.93 99.99 46.19 119.38 0 0-5.21-22.9 2.74-43.33 0 0-37.84-41-36.62-56.27 1.13-14.26 20.57-3.76 51.93-17.14 0 0-36.76 8.35-64.24-2.63" style="fill:url(#k)"/><path d="M274.18 147.54c-5.89-30.22-41.26-73.07-79.96-92.23 0 0 9.18 39.14-13.74 57.27 0 0 17.01-8.97 24.84-30.62 7.83-21.65 43.49 50.71 31.99 92.39 0 0 3.9-17.59 19.3-23.95 15.41-6.36 17.58-2.87 17.58-2.87Z" style="fill:url(#l)"/><path d="M296.56 158.79s-29.13-30.92-59.51 12.92c-30.37 43.85-63.47 29.61-84.32 28.36-21.45-1.28-65.82 7.36-61.89 63.23.1 1.48.24 2.99.39 4.52" style="fill:none"/><path d="M91.23 267.83c-.21.02-1.01-3.75-1.36-10.75-.15-6.89-.12-17.47 5.31-29.13 5.1-11.72 17.57-22.9 33.96-27.15 8.11-2.22 16.98-3.23 26.14-2.39 9.06.93 18.02 2.89 27.29 2.93 18.72.79 35.03-8.77 45.44-20.95 9.88-12.16 18.67-25.94 31.1-30.64 12.16-5.38 23.38-1.56 29.16 2.02 6.08 3.66 8.46 6.9 8.29 7.02-.21.24-2.92-2.58-9-5.71-5.85-3.07-16.31-6.11-27.34-.86-5.42 2.52-10.64 6.74-15.33 12.11-4.79 5.2-8.59 12.14-14.24 18.41-10.52 12.76-28.32 23.33-48.11 22.43-9.71-.06-18.93-2.1-27.61-3.03-8.62-.84-17.15.04-24.86 2.07-15.61 3.89-27.29 14.01-32.45 24.93-5.46 10.87-5.96 21.15-6.25 27.94-.12 6.88.18 10.73-.13 10.75Z" style="fill:#002750"/><path d="M61.74 246.73 14.7 209.05l33.48 40.14s1.56-3.3 5.93-2.84c4.37.45 7.63.39 7.63.39Z" style="fill:#d7f0fc"/><path d="m48.72 248.63-37.21-41.69" style="fill:none"/><path d="M47.5 249.72c-20.55-23.03-36.66-42.18-35.99-42.78.67-.6 17.87 17.58 38.43 40.61" style="fill:#002750"/><path d="m11.51 206.94 51.53 39.63" style="fill:none"/><path d="M62.04 247.86c-28.46-21.89-51.08-40.21-50.53-40.92.55-.71 24.06 16.45 52.52 38.34" style="fill:#002750"/><path d="M13.6 203.08a5.987 5.987 0 1 1-11.97.24 5.993 5.993 0 0 1 5.86-6.11 5.987 5.987 0 0 1 6.11 5.86Z" style="fill:none;stroke:#002750;stroke-width:3.27px"/><path d="M45.78 254.87c-5.87 11.97-9.31 32.58 8.37 46.45 15.36 12.05 33.1 13.64 44.48 11.4-.79-29.93-23.3-53.28-52.85-57.85Z" style="fill:url(#m)"/><path d="M84.84 258.23c-18.75-11.59-32.37-12.4-32.37-12.4-1.91 1.23-4.47 4.52-6.69 9.03 29.55 4.57 52.06 27.92 52.85 57.85 6.65-1.31 11.14-3.94 11.69-6.56 1.49-7.11-6.74-36.34-25.48-47.92Z" style="fill:url(#n)"/><path d="M109.93 308.34c4.23-6.07-6.19-36.34-23.89-50.13s-33.46-12.38-33.46-12.38" style="fill:none"/><path d="M52.58 245.83c-1.08-2.24 24.78-4.1 43.61 17.75 17.87 20.92 18.18 46.01 13.74 44.75.79.07-2.4-21.01-18.7-40.51-16.5-19.34-39.04-20.61-38.65-21.99Z" style="fill:#002750"/><path d="M52.58 245.83c-15.54 11.75-15.49 41.14 2.24 56.02 17.73 14.88 50.88 12.57 55.11 6.49" style="fill:none"/><path d="M109.93 308.34c3.73 2.81-29.09 17.91-58.99-5.86-13.64-13.11-14.29-31.94-10.14-42.64 4.19-11.29 11.75-14.56 11.78-14.01.86.97-4.88 5.27-7.37 15.37-2.59 9.71-1.11 25.77 10.24 36.56 25.2 20.32 56.15 10.72 54.48 10.58Z" style="fill:#002750"/><path d="M200.16 250.73c7.32 5.81 53.61-10.32 55.71-18.9" style="fill:none"/><path d="M255.87 231.83c.83.13-.76 4.15-5.62 7.23-4.66 3.3-11.7 6.68-19.78 9.47-8.09 2.75-15.73 4.39-21.45 4.6-5.76.51-9.42-1.82-8.85-2.4.08.81 13.2.1 29.06-5.82 16.12-5.09 27.06-12.42 26.64-13.08Z" style="fill:#002750"/><path d="M267.25 227.27c-6.3-23.35 18.22-44.41 33.9-22.72" style="fill:none"/><path d="M301.16 204.55c-.7.56-3.03-2.12-7.37-4.54-4.25-2.47-11.2-3.07-16.81 1.89-11.71 10.29-8.1 25.51-9.72 25.37-.66.22-2.66-2.92-3.01-8.86-.3-5.75 1.65-14.7 9.05-20.92 7.32-6.81 18.48-5.08 22.74-.85 4.64 3.96 5.65 7.55 5.12 7.91Z" style="fill:#002750"/><path d="m293.21 197 5.87-7.77" style="fill:none;stroke:#002750;stroke-width:1.84px"/><path d="m140.47 328.11 13.89 1.63-4.9 11.44" style="fill:none;stroke:#002750;stroke-linecap:round;stroke-width:1.23px"/></svg>