<svg xmlns="http://www.w3.org/2000/svg" width="427.06567pt" height="375pt" fill-rule="evenodd" viewBox="0 0 427.06567 374.99999"><path d="M483.409 593.854h-595.276v-841.89h595.276z" style="fill:none;stroke:none"/><path d="M495.73 223.844H-99.546v-841.89H495.73z" style="fill:none;fill-rule:evenodd;stroke:none"/><path d="M165.395 351.148c-.431.98.125 2.178 1.24 2.665 1.112.487 2.368.086 2.799-.894.434-.99-.12-2.193-1.232-2.683-1.115-.487-2.376-.079-2.807.912zm.939.412c.256-.585.949-.846 1.546-.586.594.262.857.931.597 1.525-.245.554-.968.819-1.548.563-.571-.249-.844-.939-.595-1.502zM171.54 346.023l-.512 1.168-1.306-.574c-.044.097-.258.586-.302.685.115.048 1.307.571 1.307.571l-.421.963-1.411-.619-.298.683 1.408.619s-.485 1.107-.533 1.22l.957.42c.051-.122 2.014-4.595 2.069-4.716-.107-.045-.853-.374-.958-.42zM166.133 344.152c-.045.098-.272.62-.316.718l2.57 1.128-.043.068c-.335.545-.952.99-1.789 1.285-.714.246-1.564.369-2.458.366l.279.816c1.282.061 2.418-.154 3.371-.645.899-.466 1.614-1.172 2.127-2.095l-3.741-1.641zM181.673 348.498c-.018.127-.277 2.149-.277 2.149s-1.073-.136-1.194-.153c-.014.108-.082.643-.097.75l1.198.152-.676 5.284c.11.016.861.112.975.125l1.046-8.182-.975-.125z" style="fill:#88898b;stroke:none" transform="translate(-364.765 -806.799) scale(3.24619)"/><path d="M177.297 348.284c-.015.108-.093.706-.106.816l1.277.163-.051.388c-.081.63-.279 1.264-.525 1.655-.307.499-.858 1.003-1.597 1.463.077.094.487.582.548.653a5.181 5.181 0 0 0 1.134-.806c.343-.318.594-.579.653-.683l.068-.124.055.131c.05.121.208.443.454.799.211.307.452.633.841.965.076-.063.505-.434.588-.504-.52-.562-.89-1.122-1.065-1.62-.164-.464-.211-1.145-.123-1.819l.047-.368 1.235.159.102-.817c-.129-.017-3.407-.436-3.535-.451zM183.514 348.576c-.016.133-1.078 8.427-1.096 8.559.115.014.905.116 1.018.129l1.095-8.558a313.21 313.21 0 0 1-1.017-.13zM194.976 347.717c.019.132 1.276 8.397 1.297 8.53.114-.016.91-.139 1.023-.156l-.799-5.247 1.281-.194a42.847 42.847 0 0 0-.115-.777l-1.281.195-.383-2.506-1.023.155zM189.561 349.032l.125.815 1.665-.254.01.071c.089.667.05 1.339-.108 1.841-.228.705-.795 1.475-1.517 2.08.104.08.627.474.703.531a7.285 7.285 0 0 0 1.077-1.098c.306-.371.546-.768.682-1.12l.041-.107.075.086c.225.253.573.543 1.04.86.412.263.859.488 1.245.627.047-.077.406-.61.477-.716-.852-.364-1.53-.824-1.905-1.301-.344-.421-.6-1.041-.757-1.843l-.012-.071 1.706-.259c-.015-.108-.109-.708-.126-.815l-4.421.673zM202.482 351.103c.047.097.292.611.337.71.117-.057 1.963-.933 1.963-.933s1.3 2.732 1.359 2.853l.989-.47c-.059-.12-1.357-2.854-1.357-2.854l1.471-.699 1.355 2.854.981-.465c-.056-.121-1.356-2.855-1.356-2.855l1.954-.928a42.02 42.02 0 0 0-.337-.71l-7.359 3.497zM202.891 347.968c.502 1.052 1.853 1.456 3.02.901 1.163-.552 1.706-1.857 1.205-2.906-.499-1.051-1.85-1.454-3.014-.9-1.168.554-1.71 1.856-1.211 2.905zm.964-.456a1.298 1.298 0 0 1 .613-1.7c.633-.301 1.418-.03 1.712.595.299.624.013 1.405-.619 1.705-.627.298-1.411.024-1.706-.6z" style="fill:#88898b;stroke:none" transform="translate(-364.765 -806.799) scale(3.24619)"/><path d="M325.151 296.764c.231.269 1.494 1.73 1.73 1.993.332-.283 10.535-9.116 10.535-9.116l.14.163c.077.071.152.159.233.253 1.435 1.662 4.801 6.36 5.996 8.657l.078.166s-12.33 10.67-12.664 10.956c.244.263 1.435 1.659 1.669 1.925.328-.28 8.69-7.515 8.69-7.515s6.437 7.427 6.71 7.749c.285-.25 2.457-2.13 2.743-2.377-.28-.314-6.71-7.751-6.71-7.751s8.222-7.11 8.544-7.386c-.24-.269-1.435-1.665-1.675-1.931-.312.276-4.769 4.132-4.769 4.132l-.14-.243c-1.603-2.86-5.833-8.768-7.865-11.15-.325.291-12.917 11.189-13.245 11.475z" style="fill:#88898b;stroke:none;stroke-width:3.24619"/><path d="M152.42 331.867c-.109.077-5.008 3.541-5.116 3.619l.604.852 5.116-3.617-.604-.854zM144.866 331.519l-1.752 1.237c-.233.165-.271.511-.088.77 0 0 2.874 4.066 2.954 4.175l.656-.465-2.676-3.783 1.516-1.074c-.066-.092-.542-.767-.61-.86zM146.893 328.291c-.988.697-1.198 2.109-.466 3.142.73 1.035 2.132 1.307 3.118.611.988-.7 1.199-2.109.467-3.144-.731-1.035-2.13-1.308-3.119-.609zm.613.87c.609-.431 1.425-.329 1.817.225.392.555.215 1.355-.393 1.786-.609.431-1.423.328-1.815-.225-.392-.556-.215-1.356.391-1.786zM157.811 337.534c-.073.095-.647.815-.647.815s-1.259-1.002-1.355-1.081c-.07.086-.429.538-.497.623l1.377 1.095-.046.054a3.03 3.03 0 0 1-1.412.913c-.565.162-1.381.196-2.146.093.016.135.089.797.101.885.338.054.965.125 1.676.055.454-.047.846-.123 1.049-.205l.113-.044-.02.119c-.038.249-.004.632.098 1.135.107.488.239.918.499 1.397l.795-.198c-.292-.697-.457-1.367-.466-1.893a2.66 2.66 0 0 1 .547-1.595l.043-.053 1.389 1.105c.067-.086.428-.538.494-.622-.098-.08-1.37-1.093-1.37-1.093s.571-.72.647-.814l-.869-.691z" style="fill:#88898b;stroke:none" transform="translate(-364.765 -806.799) scale(3.24619)"/><path d="M160.962 340.328c-.081.1-1.439 1.809-1.439 1.809l-1.317-1.047-.489.613c.098.08 1.315 1.048 1.315 1.048l-1.976 2.485c.087.072.726.581.817.653.082-.105 3.823-4.807 3.908-4.911-.09-.071-.73-.578-.819-.65zM153.613 342.103a3639.2 3639.2 0 0 0-1.336 1.677c-.178.224-.12.567.128.766l4.002 3.184.502-.63-3.627-2.887 1.156-1.452c-.087-.071-.734-.586-.825-.658zM223.875 326.97c.101.063.868.555.868.555s-.641 1.006-.709 1.109c.091.06.555.355.648.412l.708-1.109 1.04.664-.706 1.111.642.412c.07-.106.711-1.111.711-1.111s.992.635 1.095.703l.561-.882c-.11-.072-4.183-2.673-4.294-2.744-.064.097-.503.784-.564.88zM226.102 333.903c.089.059.563.36.653.417l2.495-3.906 1.893 1.209.567-.89c-.111-.069-2.11-1.349-2.11-1.349-.242-.151-.577-.058-.748.209l-2.75 4.31zM222.561 333.419c.987.631 2.337.291 3.007-.759.67-1.05.411-2.416-.579-3.048-.988-.63-2.336-.29-3.007.761-.668 1.047-.409 2.413.579 3.046zm.567-.892c-.596-.38-.793-1.145-.436-1.702.358-.559 1.133-.704 1.73-.323.586.375.783 1.155.435 1.704-.356.559-1.131.702-1.729.321z" style="fill:#88898b;stroke:none" transform="translate(-364.765 -806.799) scale(3.24619)"/><path d="m120.865 112.805-2.343 3.876-18.056-10.91 2.344-3.876zM114.61 98.791l.107.004c-.548-1.523-.445-3.15.87-4.941.86-1.179 3.405-2.824 5.437-1.987.87.344 1.66.85 2.059 1.146l7.706 5.645-2.59 3.535-7.116-5.216c-1.289-.906-2.987-1.607-4.262.136-.812 1.107-.533 2.801 1.152 4.106l7.116 5.217-2.587 3.535-11.83-8.67 2.571-3.513zM131.153 84.054c-.903-.79-2.315-1.412-3.46-.163-1.264 1.377 1.294 3.77 2.096 4.584 1.071.824 3.821 3.311 5.087 1.935 1.146-1.247.253-2.74-.607-3.574l2.886-3.14c2.655 2.636 2.6 5.72-.13 8.69-2.941 3.205-7.288 2.189-10.148-.438-2.863-2.63-4.242-6.872-1.295-10.076 2.529-2.756 5.976-3.356 8.495-1.003zM142.505 85.917l-13.871-15.893 3.281-2.867 5.36 6.145.084.003c-.204-1.606.257-3.171 1.929-4.632 1.1-.958 3.947-2.006 5.745-.747a10.36 10.36 0 0 1 1.757 1.572l6.278 7.2-3.299 2.88-5.8-6.65c-1.059-1.168-2.562-2.226-4.191-.804-1.036.902-1.133 2.616.227 4.262l5.798 6.648zM153.668 65.096c-.86-1.36-1.34-2.837.322-3.977 1.759-1.204 2.963-.224 3.872 1.1zm9.58-3.029c-.546-.792-1.075-1.564-1.682-2.243-.626-.708-1.289-1.315-2.09-1.76-2.467-1.424-4.873-.905-7.139.647-3.687 2.528-3.889 6.778-1.396 10.417 2.78 4.048 6.045 5.242 10.187 2.402 2.818-1.935 4.48-4.525 2.743-7.726l-3.253 2.23c.426 1.34.11 2.23-1.142 3.087-1.854 1.27-3.081-.049-4.152-1.616zM168.66 57.724c-1.088-2.068-1.87-4.496.509-5.75 2.38-1.249 3.934.77 5.025 2.838 1.087 2.068 1.873 4.496-.51 5.746-2.376 1.253-3.934-.766-5.025-2.834zm9.543-5.019c-2.15-4.087-6.155-5.544-10.394-3.314-4.24 2.23-5.305 6.356-3.156 10.44 2.15 4.087 6.152 5.544 10.391 3.314 4.243-2.23 5.308-6.356 3.159-10.44zM183.446 44.509l.084.061c.376-1.577 1.347-2.886 3.425-3.668 1.366-.516 4.398-.51 5.645 1.298.539.767.925 1.62 1.1 2.085l3.38 8.936-4.1 1.549-3.12-8.252c-.584-1.464-1.623-2.977-3.649-2.21-1.282.483-1.97 2.054-1.269 4.07l3.123 8.255-4.1 1.548-5.19-13.718 4.07-1.539zM207.84 50.27l-3.943-20.723 13.374-2.545.656 3.444L209 32.147l.95 4.993 8.32-1.584.66 3.444-8.327 1.584 1.685 8.84zM225.506 32.673l.338 2.64.055-.004c.714-2.386 2.522-3.142 4.707-3.292l.367 3.87-1.893.178c-.72.127-1.642.623-2.019 1.276-.392.857-.405 1.682-.34 2.642l.678 7.246-4.334.406-1.126-11.693c-.059-.61-.26-1.824-.419-2.896zM237.969 40.477c0 1.899.26 3.68 2.509 3.68 1.519 0 2.279-.554 2.688-1.898h3.944c-.38 3.623-3.214 4.82-6.632 4.82-5.025 0-7.041-2.833-7.041-7.742 0-4.411 2.57-7.8 7.04-7.8 2.747 0 5.026.935 6.253 3.506.409.818.614 1.694.734 2.629.116.906.116 1.84.116 2.805zm5.08-2.922c0-1.607-.435-3.097-2.571-3.097-2.016 0-2.454 1.49-2.51 3.097zM254.625 38.208c.233-1.591.83-3.023 2.837-2.802 2.12.234 2.39 1.763 2.214 3.363zm9.229 3.96c.11-.958.21-1.886.194-2.798-.013-.945-.12-1.838-.438-2.695-.938-2.69-3.1-3.869-5.83-4.174-4.44-.487-7.369 2.597-7.856 6.982-.539 4.88 1.156 7.918 6.152 8.47 3.395.373 6.343-.507 7.119-4.064l-3.922-.432c-.552 1.288-1.37 1.76-2.876 1.59-2.236-.246-2.301-2.048-2.094-3.934zM278.718 29.96l13.576 3.95-.98 3.37-9.226-2.689-1.38 4.74 8.638 2.516-.98 3.37-8.638-2.517-1.575 5.412 9.534 2.779-.977 3.366-13.887-4.045zM300.36 49.556c.432-1.116.54-2.655-1.025-3.308-1.727-.72-3.104 2.507-3.594 3.536-.409 1.285-1.811 4.72-.088 5.44 1.565.653 2.666-.694 3.152-1.788l3.938 1.642c-1.574 3.392-4.493 4.395-8.213 2.84-4.019-1.674-4.544-6.102-3.048-9.69 1.493-3.586 5.012-6.33 9.028-4.654 3.454 1.438 5.194 4.476 3.84 7.648zM309.437 56.334c1.133-2.041 2.736-4.028 5.086-2.723 2.35 1.305 1.516 3.713.38 5.759-1.136 2.045-2.736 4.028-5.087 2.723-2.35-1.305-1.512-3.714-.38-5.759zm9.427 5.233c2.24-4.035 1.266-8.183-2.925-10.508-4.188-2.327-8.223-.957-10.46 3.078-2.243 4.038-1.272 8.183 2.919 10.51 4.187 2.325 8.222.955 10.466-3.08zM328.592 61.463l-.003.108c1.523-.556 3.15-.458 4.944.85 1.182.857 2.838 3.399 2.007 5.434a9.935 9.935 0 0 1-1.137 2.061l-5.619 7.726-3.541-2.577 5.187-7.138c.906-1.29 1.597-2.99-.153-4.26-1.106-.811-2.798-.522-4.1 1.17l-5.19 7.134-3.545-2.577 8.628-11.862 3.52 2.561zM339.097 76.974c1.594-1.711 3.626-3.25 5.593-1.416 1.964 1.831.575 3.967-1.022 5.678-1.594 1.71-3.626 3.25-5.59 1.415-1.967-1.834-.575-3.97 1.02-5.677zm7.885 7.35c3.149-3.377 3.204-7.636-.299-10.905-3.505-3.266-7.751-2.912-10.897.464-3.149 3.376-3.207 7.639.295 10.904 3.51 3.27 7.752 2.912 10.901-.464zM356.75 86.709l.036.045c1.57-.084 3.106.458 4.476 2.205 1.013 1.285 1.59 3.915.705 5.388 2.343-.09 3.879.448 5.252 2.195 1.01 1.285 1.59 3.915.704 5.392-.587 1.051-1.568 1.785-2.49 2.509l-6.937 5.447-2.707-3.447 6.937-5.448c1.224-1 2.357-2.444 1.023-4.142-.85-1.08-2.552-1.266-4.27.007l-6.936 5.447-2.707-3.447 6.94-5.448c1.22-1 2.353-2.444 1.02-4.145-.851-1.081-2.556-1.263-4.266.01l-6.94 5.447-2.708-3.448 11.537-9.057 2.688 3.425zM374.63 108.984l-12.55 7.593-2.269-3.75 12.55-7.592zm5.574-3.2-3.224 1.95-2.418-3.999 3.223-1.95zM375.828 122.131c1.055-.564 2.136-1.662 1.373-3.178-.838-1.668-3.983-.12-5.025.338-1.153.71-4.454 2.402-3.613 4.074.763 1.513 2.473 1.208 3.554.695l1.919 3.81c-3.409 1.552-6.272.41-8.083-3.194-1.954-3.888.532-7.592 4.002-9.339 3.47-1.743 7.928-1.532 9.885 2.357 1.678 3.34 1.02 6.778-2.074 8.3zM375.98 137.32l16.533 5.86-2.876-9.356 3.353-1.029 4.487 14.605-3.35 1.029-16.524-5.834 3.13 10.197-3.35 1.026-4.756-15.472zM385.71 158.443c2.3-.409 4.852-.415 5.32 2.23.47 2.65-1.929 3.52-4.227 3.925-2.301.41-4.856.416-5.324-2.233-.47-2.646 1.929-3.516 4.23-3.922zm1.882 10.615c4.541-.805 7.151-4.174 6.317-8.89-.837-4.718-4.44-6.99-8.989-6.185-4.544.805-7.154 4.175-6.317 8.891.835 4.72 4.441 6.99 8.989 6.184zM393.802 176.538l-.088.061c1.393.831 2.34 2.159 2.458 4.376.08 1.458-.848 4.347-2.951 4.983-.89.282-1.821.39-2.318.416l-9.54.512-.237-4.379 8.813-.47c1.574-.11 3.33-.643 3.217-2.802-.075-1.373-1.364-2.503-3.5-2.447l-8.806.47-.237-4.376 14.646-.782.23 4.347zM387.209 194.6c-1.896-.12-3.691.029-3.834 2.275-.094 1.516.41 2.308 1.724 2.801l-.25 3.938c-3.594-.61-4.606-3.512-4.392-6.924.321-5.015 3.275-6.846 8.174-6.538 4.402.28 7.625 3.061 7.34 7.522-.176 2.74-1.254 4.956-3.9 6.018-.837.357-1.726.506-2.668.562-.909.058-1.844 0-2.804-.059zm2.59 5.258c1.604.1 3.12-.24 3.253-2.37.13-2.012-1.33-2.544-2.928-2.704z" style="fill:#88898b;stroke:none;stroke-width:3.24619"/><path d="M61.447 128.783a1.834 1.834 0 0 0 1.169 2.32 1.838 1.838 0 0 0 2.324-1.171C89.816 54.419 159.992 3.682 239.566 3.682c101.359 0 183.822 82.462 183.822 183.818 0 101.36-82.463 183.822-183.822 183.822-92.166 0-170.536-68.816-182.3-160.076a1.84 1.84 0 0 0-2.061-1.588 1.84 1.84 0 0 0-1.59 2.062c12 93.084 91.941 163.28 185.95 163.28 103.392 0 187.5-84.109 187.5-187.5 0-103.388-84.108-187.5-187.5-187.5C158.399 0 86.817 51.754 61.448 128.783Z" style="fill:#88898b;stroke:none;stroke-width:3.24619"/><path d="M125.936 136.889a.92.92 0 0 0 1.682.75c19.688-44.139 63.628-72.66 111.948-72.66 67.563 0 122.524 54.961 122.524 122.521s-54.961 122.524-122.524 122.524c-54 0-102.343-36.146-117.561-87.897a.924.924 0 0 0-1.77.523c15.45 52.526 64.519 89.215 119.33 89.215 68.576 0 124.365-55.79 124.365-124.365 0-68.573-55.789-124.362-124.364-124.362-49.04 0-93.646 28.95-113.63 73.75z" style="fill:#88898b;stroke:none;stroke-width:3.24619"/><path d="M157.801 291.988a3.175 3.175 0 0 0-3.169 3.172 3.174 3.174 0 0 0 3.169 3.17 3.174 3.174 0 0 0 3.171-3.17 3.175 3.175 0 0 0-3.171-3.172z" style="fill:#cd0a7c;stroke:none" transform="translate(-364.765 -806.799) scale(3.24619)"/><path d="M174.376 301.491h-2.442v-1.024c0-1.411.507-2.612 2.448-3.195 1.547-.465 2.529-1.212 2.529-2.529 0-1.396-1.132-2.348-2.529-2.348-3.531 0-7.506 2.854-7.506 7.428v1.668h-1.592a2.529 2.529 0 0 0 0 5.056h1.592v13.373a2.529 2.529 0 0 0 5.058 0v-13.373h2.442a2.53 2.53 0 0 0 2.53-2.527 2.531 2.531 0 0 0-2.53-2.529zM157.801 301.491a2.528 2.528 0 0 0-2.528 2.529v15.9a2.527 2.527 0 1 0 5.055 0v-15.9a2.528 2.528 0 0 0-2.527-2.529zM214.906 317.392h-7.977c3.826-4.535 9.91-11.742 9.91-11.742a2.529 2.529 0 0 0-1.933-4.159h-13.592a2.527 2.527 0 1 0 0 5.056h8.151l-9.911 11.742a2.52 2.52 0 0 0-.363 2.697 2.53 2.53 0 0 0 2.293 1.462h13.422a2.528 2.528 0 1 0 0-5.056z" style="fill:#00447c;stroke:none" transform="translate(-364.765 -806.799) scale(3.24619)"/><path d="M187.859 300.752c-6.063 0-10.993 4.641-10.993 10.704 0 6.061 4.93 10.992 10.993 10.992h5.213a2.527 2.527 0 1 0 0-5.056h-5.213c-2.47 0-4.667-1.008-5.485-3.671h12.557c4.678 0 3.726-4.333 3.726-4.333-.971-5.076-5.442-8.636-10.798-8.636zm-5.556 8.636c.842-2.255 3.012-3.58 5.556-3.58 2.546 0 4.716 1.325 5.557 3.58z" style="fill:#00447c;stroke:none" transform="translate(-364.765 -806.799) scale(3.24619)"/><path d="M112.367 293.526c10.516.119 15.022 3.145 19.388 6.086l2.659 1.737c7.529 4.62 15.08 4.286 15.398 4.271 1.002-.053 1.775-.951 1.726-2.01-.048-1.056-.898-1.875-1.9-1.825-.07.001-6.831.273-13.39-3.754l-2.535-1.656c-4.596-3.095-9.748-6.558-21.346-6.689z" style="fill:#009fe0;stroke:none" transform="translate(-364.765 -806.799) scale(3.24619)"/><path d="M112.367 301.649c8.653.56 12.74 3.312 16.712 5.985l2.662 1.737c7.341 4.507 14.856 4.302 15.521 4.272h2.46c1.005 0 1.82-.859 1.82-1.918 0-1.061-.815-1.921-1.82-1.921h-2.489l-.081.001c-.068.005-7.015.278-13.581-3.752l-2.532-1.653c-4.213-2.838-8.922-6.007-18.672-6.598z" style="fill:#97c124;stroke:none" transform="translate(-364.765 -806.799) scale(3.24619)"/><path d="M112.367 309.089c9.75-.591 14.459-3.758 18.672-6.595l2.532-1.656c6.566-4.029 13.513-3.756 13.581-3.752h2.57c1.005 0 1.82-.857 1.82-1.918 0-1.06-.815-1.921-1.82-1.921h-2.46c-.666-.027-8.18-.235-15.521 4.272l-2.662 1.738c-3.974 2.673-8.061 5.427-16.712 5.988z" style="fill:#cd0a7c;stroke:none" transform="translate(-364.765 -806.799) scale(3.24619)"/><path d="M130.16 298.551c.54.352 1.067.708 1.595 1.061l1.849 1.206a24.433 24.433 0 0 1 4.066-1.982 25.03 25.03 0 0 1-1.422-.805l-2.496-1.63a26.23 26.23 0 0 0-2.011 1.118zM121.458 303.444c1.706.631 3.159 1.38 4.495 2.173 1.338-.691 2.531-1.432 3.658-2.173-1.127-.737-2.32-1.479-3.658-2.169-1.336.792-2.789 1.541-4.495 2.169z" style="fill:#00447c;stroke:none" transform="translate(-364.765 -806.799) scale(3.24619)"/><g style="fill:#cd0a7c;fill-opacity:1"><path d="M253.978-166.339c-.166-2.011-1.24-3.001-3.307-3.001-1.568 0-3.166.826-3.166 2.562 0 2.146 1.929 2.396 3.636 2.809 3.03.772 7.492 1.622 7.492 5.618 0 4.93-4.298 6.64-8.565 6.64-4.545 0-7.77-1.765-7.63-6.778h4.35c-.164 2.204 1.102 3.693 3.334 3.693 1.708 0 3.966-.525 3.966-2.646 0-2.34-2.838-2.507-4.545-2.946-2.78-.691-6.582-1.96-6.582-5.483 0-4.545 4.186-6.554 8.26-6.554 3.86 0 6.86 2.092 6.86 6.086zM265.326-159.04c0-2.203.414-4.573 2.947-4.573 2.536 0 2.947 2.37 2.947 4.573 0 2.204-.411 4.574-2.947 4.574-2.533 0-2.947-2.37-2.947-4.574zm10.163 0c0-4.352-2.697-7.325-7.216-7.325-4.516 0-7.216 2.973-7.216 7.325 0 4.353 2.7 7.328 7.216 7.328 4.519 0 7.216-2.975 7.216-7.328zM282.596-164.356l.057.083c.853-1.268 2.147-2.092 4.241-2.092 1.377 0 4.047 1.019 4.545 3.028a9.46 9.46 0 0 1 .275 2.205v9.005h-4.133v-8.316c-.027-1.489-.44-3.17-2.48-3.17-1.291 0-2.422 1.159-2.476 3.17v8.316h-4.132v-13.827h4.103zM299.15-159.26c0-2.038.415-4.353 2.673-4.353s2.671 2.315 2.671 4.353c0 1.79-.413 4.103-2.671 4.103s-2.674-2.313-2.674-4.103zm9.476-6.694h-4.132v1.598h-.054c-.663-1.404-1.848-2.01-3.69-2.01-3.859 0-5.87 3.553-5.87 7.08 0 3.36 1.93 6.886 5.675 6.886 1.572 0 3.032-.551 3.885-1.902h.054c.166 2.01.276 4.877-2.864 4.877-1.13 0-2.231-.47-2.286-1.71h-3.913c.083 3.719 3.362 4.462 6.42 4.462 6.058.057 6.775-3.47 6.775-6.692zM315.707-159.04c0-2.12.328-4.573 2.973-4.573 2.23 0 2.973 2.674 2.973 4.573 0 1.902-.743 4.574-2.973 4.574-2.645 0-2.973-2.453-2.973-4.574zm5.946-5.316h-.053c-.774-1.157-2.258-2.01-3.692-2.01-4.296 0-6.473 3.608-6.473 7.326 0 3.555 1.902 7.328 5.95 7.328 1.79 0 3.334-.745 4.244-2.37h.052c0 .66.055 1.295.112 1.955h4.13c-.053-.907-.136-1.845-.136-2.752v-17.133h-4.134zM332.644-159.04c0-2.203.414-4.573 2.947-4.573 2.534 0 2.95 2.37 2.95 4.573 0 2.204-.416 4.574-2.95 4.574-2.533 0-2.947-2.37-2.947-4.574zm10.163 0c0-4.352-2.697-7.325-7.216-7.325-4.516 0-7.216 2.973-7.216 7.325 0 4.353 2.7 7.328 7.216 7.328 4.519 0 7.216-2.975 7.216-7.328z" style="fill:#cd0a7c;fill-opacity:1;fill-rule:evenodd;stroke:none;stroke-width:2.18608" transform="matrix(1.11841 0 0 1.11841 -44.115 321.842)"/></g></svg>